<?xml version="1.0" encoding="UTF-8" standalone="no"?>
<!DOCTYPE svg PUBLIC "-//W3C//DTD SVG 1.1//EN"
 "http://www.w3.org/Graphics/SVG/1.1/DTD/svg11.dtd">
<!-- Generated by graphviz version 2.44.1 (20200629.0846)
 -->
<!-- Pages: 1 -->
<svg width="687pt" height="188pt"
 viewBox="0.00 0.00 686.84 188.00" xmlns="http://www.w3.org/2000/svg" xmlns:xlink="http://www.w3.org/1999/xlink">
<g id="graph0" class="graph" transform="scale(1 1) rotate(0) translate(4 184)">
<polygon fill="white" stroke="transparent" points="-4,4 -4,-184 682.84,-184 682.84,4 -4,4"/>
<!-- User_Owns_5_Cards -->
<g id="node1" class="node">
<title>User_Owns_5_Cards</title>
<ellipse fill="none" stroke="black" cx="389.14" cy="-162" rx="85.59" ry="18"/>
<text text-anchor="middle" x="389.14" y="-158.3" font-family="Times,serif" font-size="14.00">User_Owns_5_Cards</text>
</g>
<!-- Reach_5_24 -->
<g id="node6" class="node">
<title>Reach_5_24</title>
<ellipse fill="none" stroke="black" cx="479.14" cy="-90" rx="54.69" ry="18"/>
<text text-anchor="middle" x="479.14" y="-86.3" font-family="Times,serif" font-size="14.00">Reach_5_24</text>
</g>
<!-- User_Owns_5_Cards&#45;&gt;Reach_5_24 -->
<g id="edge1" class="edge">
<title>User_Owns_5_Cards&#45;&gt;Reach_5_24</title>
<path fill="none" stroke="black" d="M410.47,-144.41C422.5,-135.06 437.67,-123.25 450.7,-113.12"/>
<polygon fill="black" stroke="black" points="453.15,-115.65 458.89,-106.75 448.85,-110.13 453.15,-115.65"/>
</g>
<!-- User_Reach_5_24 -->
<g id="node2" class="node">
<title>User_Reach_5_24</title>
<ellipse fill="none" stroke="black" cx="568.14" cy="-162" rx="75.29" ry="18"/>
<text text-anchor="middle" x="568.14" y="-158.3" font-family="Times,serif" font-size="14.00">User_Reach_5_24</text>
</g>
<!-- User_Reach_5_24&#45;&gt;Reach_5_24 -->
<g id="edge2" class="edge">
<title>User_Reach_5_24&#45;&gt;Reach_5_24</title>
<path fill="none" stroke="black" d="M547.05,-144.41C535.16,-135.06 520.15,-123.25 507.27,-113.12"/>
<polygon fill="black" stroke="black" points="509.19,-110.18 499.17,-106.75 504.86,-115.68 509.19,-110.18"/>
</g>
<!-- User_Has_AMEX_P -->
<g id="node3" class="node">
<title>User_Has_AMEX_P</title>
<ellipse fill="none" stroke="black" cx="85.14" cy="-90" rx="85.29" ry="18"/>
<text text-anchor="middle" x="85.14" y="-86.3" font-family="Times,serif" font-size="14.00">User_Has_AMEX_P</text>
</g>
<!-- Suggest_AMEX_P -->
<g id="node7" class="node">
<title>Suggest_AMEX_P</title>
<ellipse fill="none" stroke="black" cx="297.14" cy="-18" rx="78.79" ry="18"/>
<text text-anchor="middle" x="297.14" y="-14.3" font-family="Times,serif" font-size="14.00">Suggest_AMEX_P</text>
</g>
<!-- User_Has_AMEX_P&#45;&gt;Suggest_AMEX_P -->
<g id="edge6" class="edge">
<title>User_Has_AMEX_P&#45;&gt;Suggest_AMEX_P</title>
<path fill="none" stroke="black" d="M129.07,-74.5C162.66,-63.4 209.09,-48.07 244.64,-36.34"/>
<polygon fill="black" stroke="black" points="245.96,-39.59 254.36,-33.13 243.77,-32.94 245.96,-39.59"/>
</g>
<!-- User_Has_AMEX_P_100K -->
<g id="node4" class="node">
<title>User_Has_AMEX_P_100K</title>
<ellipse fill="none" stroke="black" cx="297.14" cy="-90" rx="109.38" ry="18"/>
<text text-anchor="middle" x="297.14" y="-86.3" font-family="Times,serif" font-size="14.00">User_Has_AMEX_P_100K</text>
</g>
<!-- User_Has_AMEX_P_100K&#45;&gt;Suggest_AMEX_P -->
<g id="edge7" class="edge">
<title>User_Has_AMEX_P_100K&#45;&gt;Suggest_AMEX_P</title>
<path fill="none" stroke="black" d="M297.14,-71.7C297.14,-63.98 297.14,-54.71 297.14,-46.11"/>
<polygon fill="black" stroke="black" points="300.64,-46.1 297.14,-36.1 293.64,-46.1 300.64,-46.1"/>
</g>
<!-- User_Has_CIP -->
<g id="node5" class="node">
<title>User_Has_CIP</title>
<ellipse fill="none" stroke="black" cx="615.14" cy="-90" rx="63.89" ry="18"/>
<text text-anchor="middle" x="615.14" y="-86.3" font-family="Times,serif" font-size="14.00">User_Has_CIP</text>
</g>
<!-- Suggest_CIP -->
<g id="node8" class="node">
<title>Suggest_CIP</title>
<ellipse fill="none" stroke="black" cx="547.14" cy="-18" rx="56.59" ry="18"/>
<text text-anchor="middle" x="547.14" y="-14.3" font-family="Times,serif" font-size="14.00">Suggest_CIP</text>
</g>
<!-- User_Has_CIP&#45;&gt;Suggest_CIP -->
<g id="edge5" class="edge">
<title>User_Has_CIP&#45;&gt;Suggest_CIP</title>
<path fill="none" stroke="black" d="M599.03,-72.41C590.47,-63.61 579.81,-52.63 570.38,-42.92"/>
<polygon fill="black" stroke="black" points="572.62,-40.2 563.14,-35.47 567.6,-45.08 572.62,-40.2"/>
</g>
<!-- Reach_5_24&#45;&gt;Suggest_AMEX_P -->
<g id="edge3" class="edge">
<title>Reach_5_24&#45;&gt;Suggest_AMEX_P</title>
<path fill="none" stroke="black" d="M444.91,-75.83C416.73,-64.99 376.45,-49.5 345.06,-37.43"/>
<polygon fill="black" stroke="black" points="346.22,-34.13 335.63,-33.8 343.71,-40.66 346.22,-34.13"/>
</g>
<!-- Reach_5_24&#45;&gt;Suggest_CIP -->
<g id="edge4" class="edge">
<title>Reach_5_24&#45;&gt;Suggest_CIP</title>
<path fill="none" stroke="black" d="M494.91,-72.76C503.54,-63.88 514.4,-52.71 523.97,-42.85"/>
<polygon fill="black" stroke="black" points="526.53,-45.24 530.98,-35.63 521.51,-40.37 526.53,-45.24"/>
</g>
</g>
</svg>
